<svg width="14" height="14" viewBox="0 0 14 14" fill="none" xmlns="http://www.w3.org/2000/svg">
<g clip-path="url(#clip0_2_29)">
<path d="M5.25002 12.8333C5.57219 12.8333 5.83335 12.5722 5.83335 12.25C5.83335 11.9278 5.57219 11.6667 5.25002 11.6667C4.92785 11.6667 4.66669 11.9278 4.66669 12.25C4.66669 12.5722 4.92785 12.8333 5.25002 12.8333Z" stroke="black" stroke-linecap="round" stroke-linejoin="round"/>
<path d="M11.6666 12.8333C11.9888 12.8333 12.25 12.5722 12.25 12.25C12.25 11.9278 11.9888 11.6667 11.6666 11.6667C11.3445 11.6667 11.0833 11.9278 11.0833 12.25C11.0833 12.5722 11.3445 12.8333 11.6666 12.8333Z" stroke="black" stroke-linecap="round" stroke-linejoin="round"/>
<path d="M0.583313 0.583344H2.91665L4.47998 8.39418C4.53332 8.66274 4.67943 8.90399 4.89271 9.07568C5.106 9.24738 5.37289 9.33859 5.64665 9.33334H11.3166C11.5904 9.33859 11.8573 9.24738 12.0706 9.07568C12.2839 8.90399 12.43 8.66274 12.4833 8.39418L13.4166 3.50001H3.49998L5.06331 11.3108M13 11.5H5.06331" stroke="black" stroke-linecap="round" stroke-linejoin="round"/>
</g>
<defs>
<clipPath id="clip0_2_29">
<rect width="14" height="14" fill="white"/>
</clipPath>
</defs>
</svg>
